<svg xmlns="http://www.w3.org/2000/svg" width="32" height="32" viewBox="0 0 32 32">
  <path fill="#FF9580" fill-rule="evenodd" d="M11.0003121,8 L15.4584554,11.9543463 C15.5103273,12.0019551 15.5664629,12.0417471 15.6098079,12.0929081 C15.6147738,12.1232651 15.6169057,12.1538192 15.6162029,12.184572 C15.6140711,13.8878188 15.6204661,15.5896439 15.6140711,17.2907596 C15.389516,17.3370017 15.178712,17.418717 14.9816597,17.5359071 L11.0429469,13.5979045 C11.0098955,13.571032 10.9959209,13.5364512 11.0010237,13.4941607 C11.0052861,11.6623001 11.0010229,9.83186089 11.0052861,8.00142136 L11.0003121,8 Z M16.2919586,14.1159132 C17.4013539,14.1901186 18.3753146,14.592303 19.2138399,15.3224663 C18.9814821,15.5711696 18.7306486,15.8056591 18.4904752,16.0493863 C17.9831245,16.5553152 17.479328,17.0655076 16.969847,17.5664625 C16.7621326,17.4309517 16.5366439,17.339051 16.2933803,17.2907596 C16.2876961,16.2341359 16.2933803,15.1753796 16.2933803,14.1159132 L16.2919586,14.1159132 Z M11.0024433,14.590577 C12.1592585,15.7367333 13.3089677,16.8907063 14.4636509,18.0389937 C14.3286421,18.2486131 14.2320036,18.4795504 14.1779998,18.7232767 L11.0003121,18.7232767 L11.0003121,14.5884444 L11.002444,14.5905763 L11.0024433,14.590577 Z M19.2493693,16.2483463 C19.4007209,16.1033888 19.5392843,15.9477731 19.6991621,15.8077903 C20.4294634,16.6430569 20.832121,17.614174 20.9071391,18.7211428 C19.8647274,18.7254084 18.8201824,18.7211443 17.7777706,18.7232767 C17.7152401,18.7374882 17.7152401,18.6650089 17.7031603,18.625928 C17.6527927,18.4184908 17.5677618,18.2263984 17.4480649,18.0496523 C18.0449473,17.4485057 18.6482242,16.8494923 19.2493707,16.2504782 L19.2493707,16.2483463 L19.2493693,16.2483463 Z M11.0003121,19.3990329 L13.7154165,19.3990329 C13.8710322,19.3990329 14.0266479,19.3919271 14.1843955,19.402585 C14.2327144,19.6427584 14.3265102,19.8715641 14.4593878,20.0762094 L12.2566079,22.2733045 C12.2402649,22.2860948 12.213263,22.3251764 12.1940771,22.2946224 C11.4717733,21.4631581 11.0738521,20.4979623 11.0003121,19.3990329 Z M17.723767,19.402585 C18.1714281,19.392637 18.6148265,19.402585 19.062489,19.3990329 L20.9071406,19.3990329 C20.8355012,20.4885514 20.4430275,21.4466408 19.7297189,22.2733045 L18.4450006,20.992851 C18.123821,20.6695397 17.7962463,20.3519123 17.4786189,20.0243375 C17.5972848,19.8339036 17.6804227,19.6228623 17.723767,19.402585 Z M16.8327068,20.6318785 C16.882447,20.6034549 16.9321865,20.5736107 16.9819267,20.5487406 L19.2244992,22.7870497 C18.384476,23.5237759 17.4069638,23.9280927 16.2919599,24 L16.2919599,20.8287076 C16.4818908,20.7905192 16.6614293,20.7241992 16.8305751,20.6297475 L16.8327068,20.6318785 Z M13.5704605,21.9066488 C14.0266493,21.4547236 14.4778641,20.997113 14.9383161,20.5494519 C15.1443826,20.6816195 15.3738981,20.7768357 15.6133616,20.8287076 L15.6133616,24 C14.5032268,23.9275861 13.529267,23.525401 12.691481,22.7934463 C12.9778417,22.4928719 13.2784149,22.20509 13.5704605,21.9087791 L13.5704605,21.9066474 L13.5704605,21.9066488 Z"/>
</svg>
