<svg xmlns="http://www.w3.org/2000/svg" width="32" height="32" viewBox="0 0 32 32">
  <path fill="#FF9580" fill-rule="evenodd" d="M17.4479494,9.69599953 L17.4479494,9.62479941 C17.5895501,9.5647996 17.8703491,9.50799955 18.3535488,9.63759924 C18.9063485,9.78639899 19.3335491,10.3415985 19.5295482,10.6407988 L19.5279474,10.8327985 C19.5183482,11.9039977 19.1775476,14.5503966 18.5871471,16.5343952 C18.0711474,18.267994 16.945548,20.5743926 16.716749,21.0351924 C16.6042322,21.0104268 16.4906321,20.9925604 16.3759487,20.9815908 C16.4711482,20.3967919 16.8863489,17.791995 17.1479487,15.4183954 C17.4255486,12.899997 17.4471486,10.4023979 17.4471486,9.69679873 L17.4479494,9.69599953 Z M19.7671488,10.8351987 L19.7671488,10.826399 C19.9751487,10.8215993 20.4359485,10.8591993 20.9615482,11.1975985 C21.4703471,11.5247987 21.7327477,12.1471982 21.8415477,12.4815975 L21.7911477,12.6791971 C21.6671478,13.1607971 20.7487491,15.6431954 19.7607488,17.5143952 C18.9223493,19.0999943 17.5839501,20.8543941 17.2919502,21.2303931 C17.1817343,21.1779291 17.0684016,21.1333947 16.9519512,21.0967931 C17.2239511,20.5471935 18.3095505,18.3039955 18.8159494,16.6007953 C19.4127498,14.595996 19.7567496,11.9191977 19.7671488,10.8351987 Z M19.9727487,17.6223951 C20.9135482,15.8407958 21.8639477,13.3407972 22.0207468,12.7447977 C22.2279474,12.8199975 22.6727472,13.0191979 22.9623462,13.4143972 C23.2103461,13.751997 23.2911452,14.2087968 23.317546,14.4959968 L23.2207461,14.7215964 C23.033547,15.1559963 21.8927468,17.1575946 20.7431475,18.5839946 C19.7479481,19.8191939 18.2527481,21.2847922 17.8943499,21.631992 C17.77345,21.5234745 17.6433156,21.4274738 17.5039493,21.3439914 C17.8407491,20.9087917 19.1463484,19.1863926 19.9727487,17.6223935 L19.9727487,17.6223951 Z M12.0039526,11.0207989 L11.9759527,10.8015989 C12.1063527,10.5175987 12.3943523,10.0439989 12.9455521,9.79199939 C13.5455517,9.51839955 14.0119516,9.59279942 14.2207513,9.65359955 L14.2223511,9.70079952 C14.2383515,10.1767991 14.3639511,12.5199977 14.6703512,15.2855968 C14.9519512,17.815995 15.4055505,20.5071943 15.4927506,21.018394 C15.372751,21.039994 15.2551508,21.0695932 15.1399508,21.1063939 C14.9175511,20.6343942 13.9271517,18.4903954 13.2615523,16.342397 C12.5191523,13.9463984 12.0935529,11.7223999 12.0039526,11.0207997 L12.0039526,11.0207989 Z M14.4607513,9.69279977 L14.4575514,9.58319975 C14.6767515,9.38640002 15.1871509,9 15.8255508,9 C16.46235,9 16.9839504,9.38639962 17.2087503,9.58399967 L17.2087503,9.69599953 C17.2087503,10.3991989 17.1871495,12.8863976 16.9103505,15.3919962 C16.6455514,17.7951942 16.2223508,20.4375943 16.135951,20.9687932 L16.0735517,20.9671932 C15.9583517,20.9671932 15.8439521,20.9735924 15.7295517,20.9847924 C15.6447517,20.4927927 15.1895518,17.7951942 14.9079518,15.2599956 C14.602352,12.5015971 14.4775519,10.166398 14.460752,9.69199865 L14.4607513,9.69279977 Z M16.0735502,21.2023931 C17.3671502,21.2023931 17.9631491,21.9871934 18.143149,22.2863925 C17.1631495,22.9743921 16.3655498,23.3999918 16.0839505,23.3999918 C15.8023505,23.3999918 15.1023509,23.0479912 14.0015512,22.2519933 C14.1775514,21.9679935 14.7711507,21.2023931 16.0735502,21.2023931 Z M23.434346,14.8279965 C23.6311467,14.9559964 24.0351456,15.300796 23.9975464,15.963996 C23.9479457,16.8375964 22.4495473,18.5687946 20.5679476,20.3199936 C19.8617328,20.9759548 19.1177332,21.5858217 18.335948,22.1495942 C18.2555905,22.0243118 18.1646577,21.9072455 18.063149,21.7983936 C18.427948,21.4455938 19.9287479,19.9743938 20.9303466,18.7303961 C22.0823467,17.3015977 23.2287461,15.294398 23.434346,14.8279965 L23.434346,14.8279965 Z M8.65595529,14.6583968 C8.59768428,14.5136909 8.54248376,14.3678246 8.49034112,14.2207963 C8.48931795,13.957622 8.55065175,13.7098896 8.67435584,13.4775983 C8.94795529,12.9815979 9.64235497,12.7543977 9.91755466,12.6815981 L9.91915458,12.6863978 L9.94875432,12.7903978 C10.1487542,13.4871976 10.6159536,15.1199962 11.846353,17.4799952 C12.9447525,19.586394 14.1383515,21.042394 14.4727515,21.4319938 C14.3830322,21.4933353 14.2976998,21.5602697 14.2167527,21.6327928 C13.0859633,20.6536598 12.0435643,19.588062 11.0895557,18.4359963 C9.90395379,17.0023955 9.08555441,15.7319962 8.65595489,14.6583968 L8.65595529,14.6583968 Z M14.0479547,21.800792 C13.959952,21.8967927 13.8799517,22.0007918 13.8079517,22.1111926 C13.1141204,21.5937457 12.4394534,21.0524116 11.7839514,20.4871911 C9.37435433,18.4271931 8.05595523,16.9943955 8.00315526,16.0895956 C7.96315512,15.3991961 8.31355509,15.0095959 8.48315491,14.8631963 C8.9327545,15.9327956 9.74555387,17.1831954 10.9039532,18.5847938 C11.8635908,19.7429339 12.9115914,20.8146661 14.0479547,21.7999912 L14.0479547,21.800792 Z M10.1495545,12.6215983 C10.1235139,12.5326785 10.0989808,12.4433444 10.0759546,12.3535976 C10.1375542,12.0607984 10.2895546,11.6223984 10.6615545,11.3519991 C10.9905132,11.11329 11.3579798,11.00369 11.7639541,11.0231998 L11.7679542,11.0503994 C11.858354,11.7583992 12.2863537,14.0007975 13.0335533,16.4103962 C13.6959529,18.5471946 14.6759527,20.6799934 14.915952,21.1903939 C14.8344823,21.2246483 14.7550153,21.2630483 14.6775518,21.305593 C14.3855522,20.9679924 13.1743529,19.511194 12.059953,17.3727953 C10.8399541,15.0335964 10.3775542,13.4167974 10.1799546,12.7263971 L10.1495545,12.6215983 Z"/>
</svg>
