<svg xmlns="http://www.w3.org/2000/svg" width="32" height="32" viewBox="0 0 32 32">
  <path fill="#FF9580" fill-rule="evenodd" d="M18.4805877,10 C23.6011012,10 24.506465,12.7963111 23.7805715,16.7257418 C23.2910341,19.3664796 22.0723984,21.3897354 20.0261159,22.3344026 C19.1039267,22.7602245 18.2306112,23 16.1803227,23 L16.1803227,23 L10.365964,23 L10.8482906,20.2967121 L15.9583884,20.2999198 C19.0334205,20.3039294 19.8538564,18.9711307 20.2520563,17.8003208 C20.3994783,17.3640738 20.7480033,16.010425 20.7592202,15.2101043 C20.7840576,13.648757 20.0157002,12.7080994 17.4270006,12.7080994 L17.4270006,12.7080994 L12.1694808,12.7000802 L12.6518074,10 Z M16.104208,15.1435445 C16.104208,15.1435445 16.0441175,15.4603047 15.8542315,16.2502005 C15.709213,16.8524459 15.4912847,17.8468324 13.9665879,17.8468324 L13.9665879,17.8468324 L8,17.8468324 C8,17.8468324 8.06009052,17.5260626 8.24997656,16.7393745 C8.39499501,16.137931 8.6129233,15.1435445 10.1384213,15.1435445 L10.1384213,15.1435445 Z"/>
</svg>
