<svg xmlns="http://www.w3.org/2000/svg" width="32" height="32" viewBox="0 0 32 32">
  <path fill="#FF9580" fill-rule="evenodd" d="M19.6360545,9.79578059 C20.1247155,9.79578059 20.5210489,9.39296765 20.5210489,8.8978903 C20.5210489,8.40281294 20.1247155,8 19.6360545,8 C19.1473935,8.00225035 18.7510601,8.40506329 18.7510601,8.90014065 C18.7510601,9.395218 19.1473935,9.79578059 19.6360545,9.79578059 Z M19.8970265,12.1294177 C20.311375,12.1294177 20.6469072,11.7896146 20.6469072,11.3687989 C20.6469072,10.9502335 20.311375,10.60818 19.8970265,10.60818 C19.482678,10.60818 19.1471458,10.9479831 19.1471458,11.3687989 C19.1471458,11.7896146 19.482678,12.1294177 19.8970265,12.1294177 L19.8970265,12.1294177 Z M21.9553703,12.4264191 C22.3674669,12.4264191 22.7029991,12.086616 22.7029991,11.6680506 C22.7029991,11.2494852 22.3674669,10.9096821 21.9553703,10.9096821 C21.5432737,10.9096821 21.2077414,11.2494852 21.2077414,11.6680506 C21.2077414,12.086616 21.5432737,12.4264191 21.9553703,12.4264191 Z M21.7081799,14.4229311 C22.0617272,14.4229311 22.3477178,14.1326357 22.3477178,13.7748298 C22.3477178,13.4170239 22.0617272,13.1267286 21.7081799,13.1267286 C21.3546325,13.1267286 21.068642,13.4170239 21.068642,13.7748298 C21.068642,14.1326357 21.3546325,14.4229311 21.7081799,14.4229311 Z M23.3559583,15.0704023 C23.7117576,15.0704023 24,14.7778565 24,14.4178003 C24,14.057744 23.7117576,13.7651983 23.3559583,13.7651983 C23.000159,13.7651983 22.7119166,14.057744 22.7119166,14.4178003 C22.7119166,14.7778565 23.000159,15.0704023 23.3559583,15.0704023 Z M19.6373381,14.1527764 C19.999893,14.1527764 20.2926393,13.85573 20.2926393,13.4889226 C20.2926393,13.1221153 19.999893,12.8250689 19.6373381,12.8250689 C19.2747831,12.8250689 18.9820369,13.1221153 18.9820369,13.4889226 C18.9820369,13.8534796 19.2747831,14.1527764 19.6373381,14.1527764 Z M19.0434911,15.7414571 C19.3474968,15.7414571 19.5929533,15.4916681 19.5929533,15.1856203 C19.5929533,14.8773221 19.3474968,14.6297834 19.0434911,14.6297834 C18.7394854,14.6297834 18.494029,14.8795724 18.494029,15.1856203 C18.494029,15.4916681 18.7394854,15.7414571 19.0434911,15.7414571 Z M21.1042894,16.022256 C21.4060432,16.022256 21.6492478,15.7747173 21.6492478,15.4686695 C21.6492478,15.1626217 21.4060432,14.915083 21.1042894,14.915083 C20.8025356,14.915083 20.5593311,15.1626217 20.5593311,15.4686695 C20.5570792,15.7747173 20.8025356,16.022256 21.1042894,16.022256 Z M22.747429,16.6672743 C23.0514347,16.6672743 23.2968911,16.4174852 23.2968911,16.1091871 C23.2968911,15.8008889 23.0514347,15.5510999 22.747429,15.5510999 C22.4434233,15.5510999 22.1979668,15.8008889 22.1979668,16.1091871 C22.1979668,16.4174852 22.4434233,16.6672743 22.747429,16.6672743 Z M21.9357112,17.8723601 C22.1924272,17.8723601 22.3996014,17.660827 22.3996014,17.4020366 C22.3996014,17.1432461 22.1924272,16.9317131 21.9357112,16.9317131 C21.6789953,16.9317131 21.4718211,17.1432461 21.4718211,17.4020366 C21.4718211,17.660827 21.6789953,17.8723601 21.9357112,17.8723601 Z M20.2848252,17.2376259 C20.5460449,17.2376259 20.7599748,17.0215921 20.7599748,16.7560506 C20.7599748,16.4905091 20.5482968,16.2744754 20.2848252,16.2744754 C20.0213536,16.2744754 19.8096755,16.4905091 19.8096755,16.7560506 C19.8096755,17.0215921 20.0236055,17.2376259 20.2848252,17.2376259 Z M18.2267517,16.9435499 C18.4857195,16.9435499 18.6973975,16.7297665 18.6973975,16.4664754 C18.6973975,16.2031842 18.4879714,15.9894008 18.2267517,15.9894008 C17.9677838,15.9894008 17.7561058,16.2031842 17.7561058,16.4664754 C17.7561058,16.7297665 17.9655319,16.9435499 18.2267517,16.9435499 Z M19.3707138,18.0755218 C19.5981551,18.0755218 19.7805586,17.8887426 19.7805586,17.6614571 C19.7805586,17.4319212 19.5981551,17.2473924 19.3707138,17.2473924 C19.1432725,17.2473924 18.9608691,17.4341716 18.9608691,17.6614571 C18.9608691,17.890993 19.1432725,18.0755218 19.3707138,18.0755218 Z M21.0209694,18.7207651 C21.2484107,18.7207651 21.4353179,18.5339859 21.4353179,18.3021997 C21.4353179,18.0704135 21.2506625,17.8836343 21.0209694,17.8836343 C20.7935281,17.8836343 20.6066209,18.0704135 20.6066209,18.3021997 C20.6088727,18.5339859 20.7935281,18.7207651 21.0209694,18.7207651 Z M20.091455,19.2049733 C20.2716066,19.2049733 20.4179797,19.0564501 20.4179797,18.8741716 C20.4179797,18.6918931 20.2716066,18.5433699 20.091455,18.5433699 C19.9113035,18.5433699 19.7649304,18.6918931 19.7649304,18.8741716 C19.7671823,19.0564501 19.9113035,19.2049733 20.091455,19.2049733 Z M19.2110095,19.4646639 C19.3753978,19.4646639 19.5060076,19.3296428 19.5060076,19.1653671 C19.5060076,18.9988411 19.3731459,18.8660703 19.2110095,18.8660703 C19.0466212,18.8660703 18.9160114,19.0010914 18.9160114,19.1653671 C18.9137595,19.3318931 19.0466212,19.4646639 19.2110095,19.4646639 Z M18.4398259,18.6040844 C18.6334888,18.6040844 18.7911213,18.4443094 18.7911213,18.2485288 C18.7911213,18.0527482 18.6334888,17.8929733 18.4398259,17.8929733 C18.246163,17.8929733 18.0885304,18.0527482 18.0885304,18.2485288 C18.0885304,18.4443094 18.246163,18.6040844 18.4398259,18.6040844 Z M17.3078213,17.7881969 C17.5330107,17.7881969 17.717666,17.6036681 17.717666,17.3741322 C17.717666,17.1445963 17.5352625,16.9600675 17.3078213,16.9600675 C17.0826318,16.9600675 16.8979765,17.1445963 16.8979765,17.3741322 C16.9002284,17.6036681 17.0826318,17.7881969 17.3078213,17.7881969 Z M20.6642018,22.9736821 C21.1506109,22.9736821 21.5446924,22.5731195 21.5446924,22.0802925 C21.5446924,21.5874655 21.1506109,21.186903 20.6642018,21.186903 C20.1777927,21.186903 19.7837112,21.5874655 19.7837112,22.0802925 C19.7837112,22.5731195 20.1777927,22.9736821 20.6642018,22.9736821 Z M18.4265397,21.8425429 C18.8318806,21.8425429 19.1606572,21.5094909 19.1606572,21.0976765 C19.1606572,20.6858622 18.8318806,20.3528101 18.4265397,20.3528101 C18.0211988,20.3528101 17.6924222,20.6858622 17.6924222,21.0976765 C17.6924222,21.5094909 18.0211988,21.8425429 18.4265397,21.8425429 Z M17.1483872,23.4793586 C17.5582319,23.4793586 17.8892603,23.1440563 17.8892603,22.7277412 C17.8892603,22.3136765 17.5582319,21.9761238 17.1483872,21.9761238 C16.7385424,21.9761238 16.407514,22.3114262 16.407514,22.7277412 C16.407514,23.1418059 16.7385424,23.4793586 17.1483872,23.4793586 Z M16.7640564,20.4636399 C17.1176038,20.4636399 17.4058462,20.1733446 17.4058462,19.8132883 C17.4058462,19.4532321 17.1176038,19.1629367 16.7640564,19.1629367 C16.410509,19.1629367 16.1222666,19.4532321 16.1222666,19.8132883 C16.1222666,20.1710942 16.410509,20.4636399 16.7640564,20.4636399 Z M15.4885386,22.1224641 C15.8420859,22.1224641 16.1280765,21.8321688 16.1280765,21.4743629 C16.1280765,21.116557 15.8420859,20.8262616 15.4885386,20.8262616 C15.1349912,20.8262616 14.8490007,21.116557 14.8490007,21.4743629 C14.8467488,21.8321688 15.1349912,22.1224641 15.4885386,22.1224641 Z M14.1142076,23.2489001 C14.467755,23.2489001 14.7514936,22.9586048 14.7514936,22.6030492 C14.7514936,22.2452433 14.4655031,21.9571983 14.1142076,21.9571983 C13.7606603,21.9571983 13.4769216,22.2474937 13.4769216,22.6030492 C13.4769216,22.9586048 13.7629121,23.2489001 14.1142076,23.2489001 Z M12.9703806,21.7829311 C13.2698825,21.7829311 13.5153389,21.5353924 13.5153389,21.2315949 C13.5153389,20.9277975 13.2721344,20.6802588 12.9703806,20.6802588 C12.6708786,20.6802588 12.4254222,20.9277975 12.4254222,21.2315949 C12.4276741,21.5353924 12.6708786,21.7829311 12.9703806,21.7829311 Z M14.3472336,20.6519494 C14.6489874,20.6519494 14.892192,20.4044107 14.892192,20.1006132 C14.892192,19.7945654 14.6489874,19.5492771 14.3472336,19.5492771 C14.0454798,19.5492771 13.8022753,19.7968158 13.8022753,20.1006132 C13.8022753,20.4044107 14.0454798,20.6519494 14.3472336,20.6519494 Z M15.6321193,18.9932152 C15.9338731,18.9932152 16.1770777,18.7456765 16.1770777,18.4396287 C16.1770777,18.1335809 15.9338731,17.8860422 15.6321193,17.8860422 C15.3303655,17.8860422 15.087161,18.1335809 15.087161,18.4396287 C15.087161,18.7456765 15.3303655,18.9932152 15.6321193,18.9932152 Z M13.6669139,19.2216709 C13.9281336,19.2216709 14.1398117,19.0078875 14.1398117,18.742346 C14.1398117,18.4768045 13.9281336,18.2630211 13.6669139,18.2630211 C13.4056942,18.2630211 13.1940162,18.4768045 13.1940162,18.742346 C13.1940162,19.0078875 13.4056942,19.2216709 13.6669139,19.2216709 Z M12.2972894,20.3482419 C12.5562572,20.3482419 12.7656834,20.1367089 12.7656834,19.8734177 C12.7656834,19.6101266 12.5562572,19.3985935 12.2972894,19.3985935 C12.0383216,19.3985935 11.8288955,19.6101266 11.8288955,19.8734177 C11.8288955,20.1367089 12.0383216,20.3482419 12.2972894,20.3482419 Z M11.9820243,19.0278256 C12.2049618,19.0278256 12.3873652,18.8432968 12.3873652,18.6182616 C12.3873652,18.3909761 12.2049618,18.2086976 11.9820243,18.2086976 C11.7590867,18.2086976 11.5766833,18.3932264 11.5766833,18.6182616 C11.5766833,18.8455471 11.7590867,19.0278256 11.9820243,19.0278256 Z M11.9705171,17.8693896 C12.1619281,17.8693896 12.3173088,17.711865 12.3173088,17.5160844 C12.3173088,17.3225541 12.1619281,17.1627792 11.9705171,17.1627792 C11.7791061,17.1627792 11.6237254,17.3203038 11.6237254,17.5160844 C11.6237254,17.711865 11.7791061,17.8693896 11.9705171,17.8693896 Z M12.1615227,16.9059466 C12.325911,16.9059466 12.4565209,16.7709255 12.4565209,16.6066498 C12.4565209,16.4423741 12.3236591,16.307353 12.1615227,16.307353 C11.9971345,16.307353 11.8665246,16.4423741 11.8665246,16.6066498 C11.8665246,16.7709255 11.9971345,16.9059466 12.1615227,16.9059466 Z M13.3425511,16.7451589 C13.536214,16.7451589 13.6938466,16.585384 13.6938466,16.3896034 C13.6938466,16.1938228 13.536214,16.0340478 13.3425511,16.0340478 C13.1488882,16.0340478 12.9912556,16.1938228 12.9912556,16.3896034 C12.9912556,16.585384 13.1488882,16.7451589 13.3425511,16.7451589 Z M14.6388089,16.24018 C14.8639983,16.24018 15.0486536,16.0534008 15.0486536,15.8261153 C15.0486536,15.5965795 14.8662502,15.4120506 14.6388089,15.4120506 C14.4136195,15.4120506 14.2289641,15.5988298 14.2289641,15.8261153 C14.2289641,16.0556512 14.4113676,16.24018 14.6388089,16.24018 Z M14.9473859,17.5541153 C15.2041018,17.5541153 15.413528,17.3425823 15.413528,17.0815415 C15.413528,16.8205007 15.2041018,16.6089677 14.9473859,16.6089677 C14.69067,16.6089677 14.4812438,16.8205007 14.4812438,17.0815415 C14.4812438,17.3425823 14.6884181,17.5541153 14.9473859,17.5541153 Z M13.3587647,17.9038425 C13.5839541,17.9038425 13.7641057,17.7193136 13.7641057,17.4920281 C13.7641057,17.2647426 13.5817022,17.0802138 13.3587647,17.0802138 C13.1335753,17.0802138 12.9534238,17.2647426 12.9534238,17.4920281 C12.9511719,17.7193136 13.1335753,17.9038425 13.3587647,17.9038425 Z M8.87823868,17.2934571 C9.3623959,17.2934571 9.75647736,16.8951449 9.75647736,16.4045682 C9.75647736,15.9139916 9.3623959,15.5156793 8.87823868,15.5156793 C8.39408146,15.5156793 8,15.9139916 8,16.4045682 C8,16.8951449 8.39408146,17.2934571 8.87823868,17.2934571 Z M10.8717279,15.705699 C11.2883283,15.705699 11.6238605,15.3636456 11.6238605,14.9428298 C11.6238605,14.5220141 11.2860764,14.1799606 10.8717279,14.1799606 C10.4551275,14.1799606 10.1195953,14.5220141 10.1195953,14.9428298 C10.1195953,15.3658959 10.4573794,15.705699 10.8717279,15.705699 Z M10.0938111,13.7481406 C10.5081596,13.7481406 10.8414399,13.4083376 10.8414399,12.9897722 C10.8414399,12.5712068 10.5059077,12.2314037 10.0938111,12.2314037 C9.67946259,12.2314037 9.346171,12.5712068 9.346171,12.9897722 C9.34393037,13.4083376 9.67946259,13.7481406 10.0938111,13.7481406 Z M12.015645,12.8206132 C12.3691924,12.8206132 12.6574348,12.5303179 12.6574348,12.1702616 C12.6574348,11.8102053 12.3691924,11.51991 12.015645,11.51991 C11.6620977,11.51991 11.3738552,11.8102053 11.3738552,12.1702616 C11.3738552,12.5303179 11.6620977,12.8206132 12.015645,12.8206132 Z M12.8006328,14.7735359 C13.156432,14.7735359 13.4446745,14.4809902 13.4446745,14.1209339 C13.4446745,13.7608776 13.156432,13.4683319 12.8006328,13.4683319 C12.4448335,13.4683319 12.1565911,13.7608776 12.1565911,14.1209339 C12.1565911,14.4809902 12.4448335,14.7735359 12.8006328,14.7735359 Z M14.5497915,14.368 C14.8515453,14.368 15.0970017,14.1204613 15.0970017,13.8121632 C15.0970017,13.5061153 14.8515453,13.2563263 14.5497915,13.2563263 C14.2480377,13.2563263 14.0025812,13.503865 14.0025812,13.8121632 C14.0003293,14.118211 14.2457858,14.368 14.5497915,14.368 Z M16.0600242,14.3729508 C16.3212439,14.3729508 16.532922,14.1591674 16.532922,13.8958762 C16.532922,13.6325851 16.3212439,13.4188017 16.0600242,13.4188017 C15.7988045,13.4188017 15.5871265,13.6325851 15.5871265,13.8958762 C15.5893784,14.1591674 15.8010564,14.3729508 16.0600242,14.3729508 Z M17.3083617,14.6603207 C17.5267954,14.6603207 17.706947,14.4802925 17.706947,14.2575077 C17.706947,14.0347229 17.5290473,13.8546948 17.3083617,13.8546948 C17.089928,13.8546948 16.9097765,14.0347229 16.9097765,14.2575077 C16.9120284,14.4780422 17.089928,14.6603207 17.3083617,14.6603207 Z M17.4710385,13.190256 C17.6624495,13.190256 17.8178302,13.0327314 17.8178302,12.8392011 C17.8178302,12.6456709 17.6624495,12.4881463 17.4710385,12.4881463 C17.2796275,12.4881463 17.1242468,12.6456709 17.1242468,12.8392011 C17.1242468,13.0327314 17.2796275,13.190256 17.4710385,13.190256 Z M16.5112362,12.7091533 C16.7319219,12.7091533 16.9120734,12.5268748 16.9120734,12.3018397 C16.9120734,12.0768045 16.7319219,11.894526 16.5112362,11.894526 C16.2905506,11.894526 16.1103991,12.0768045 16.1103991,12.3018397 C16.1103991,12.5268748 16.2882987,12.7091533 16.5112362,12.7091533 Z M15.2773785,12.4176428 C15.5363463,12.4176428 15.7457724,12.2038594 15.7457724,11.9428186 C15.7457724,11.6795274 15.5363463,11.4679944 15.2773785,11.4679944 C15.0184106,11.4679944 14.8089845,11.6817778 14.8089845,11.9428186 C14.8089845,12.2061097 15.0184106,12.4176428 15.2773785,12.4176428 Z M13.7694652,12.4195331 C14.0734709,12.4195331 14.3189273,12.169744 14.3189273,11.8636962 C14.3189273,11.5576484 14.0734709,11.3078594 13.7694652,11.3078594 C13.4654595,11.3078594 13.220003,11.5576484 13.220003,11.8636962 C13.2222549,12.1719944 13.4677114,12.4195331 13.7694652,12.4195331 Z M11.7383693,11.0295134 C12.0829091,11.0295134 12.3598921,10.7482194 12.3598921,10.3994149 C12.3598921,10.0506104 12.0806572,9.76931646 11.7383693,9.76931646 C11.3938295,9.76931646 11.1168466,10.0506104 11.1168466,10.3994149 C11.1168466,10.7482194 11.3960814,11.0295134 11.7383693,11.0295134 Z M13.4864471,10.6476512 C13.7904528,10.6476512 14.0359093,10.3978622 14.0359093,10.0918143 C14.0359093,9.78576653 13.7904528,9.5359775 13.4864471,9.5359775 C13.1824414,9.5359775 12.936985,9.78576653 12.936985,10.0918143 C12.936985,10.3978622 13.1824414,10.6476512 13.4864471,10.6476512 L13.4864471,10.6476512 Z M14.9966348,10.6548523 C15.2578545,10.6548523 15.4695326,10.4410689 15.4695326,10.1755274 C15.4695326,9.90998594 15.2578545,9.69620253 14.9966348,9.69620253 C14.7354151,9.69620253 14.5237371,9.90998594 14.5237371,10.1755274 C14.5237371,10.4388186 14.7354151,10.6548523 14.9966348,10.6548523 Z M16.2355819,10.9400169 C16.4562675,10.9400169 16.6341671,10.7599887 16.6341671,10.5372039 C16.6341671,10.3144191 16.4562675,10.134391 16.2355819,10.134391 C16.0148963,10.134391 15.8369966,10.3144191 15.8369966,10.5372039 C15.8369966,10.7577384 16.0171482,10.9400169 16.2355819,10.9400169 Z M17.1877052,11.4340816 C17.38362,11.4340816 17.5435045,11.2720563 17.5435045,11.0740253 C17.5435045,10.873744 17.38362,10.7139691 17.1877052,10.7139691 C16.9917904,10.7139691 16.831906,10.8759944 16.831906,11.0740253 C16.831906,11.2720563 16.9917904,11.4340816 17.1877052,11.4340816 Z M17.8861076,12.0008326 C18.048244,12.0008326 18.1788539,11.8680619 18.1788539,11.7037862 C18.1788539,11.5395105 18.048244,11.4067398 17.8861076,11.4067398 C17.7239713,11.4067398 17.5933614,11.5395105 17.5933614,11.7037862 C17.5911095,11.8680619 17.7239713,12.0008326 17.8861076,12.0008326 Z"/>
</svg>
