<svg xmlns="http://www.w3.org/2000/svg" viewBox="0 0 32 32"><path fill="#ff9580" fill-rule="evenodd" d="M15.406 7h1.209c1.62 0 3.094.663 4.161 1.73 1.426 1.426 2.583 4.441.925 6.1-.306.306-.684.54-1.106.676.289.233.541.501.756.804.262-.013.557 0 .823 0 .53 0 1.001.273 1.335.713.303.4.491.946.491 1.539 0 .657-.999.657-.999 0 0-.371-.11-.703-.288-.938-.148-.195-.34-.316-.539-.316h-.313c.138.408.209.833.209 1.264 0 1.615-.66 3.083-1.724 4.147-2.315 2.315-6.356 2.315-8.67 0a5.854 5.854 0 01-1.725-4.147c0-.432.07-.855.209-1.264h-.334c-.2 0-.391.121-.539.316a1.562 1.562 0 00-.288.938c0 .657-.999.657-.999 0 0-.593.188-1.138.491-1.539.334-.44.805-.714 1.335-.714.257 0 .596-.02.843.002.214-.303.465-.57.757-.805-.422-.135-.8-.37-1.106-.676-1.658-1.659-.501-4.674.925-6.1A5.874 5.874 0 0115.405 7zm2.73 8.636h-4.25c-.807 0-1.541.33-2.074.862a2.927 2.927 0 00-.863 2.074c0 1.34.549 2.558 1.432 3.441 1.925 1.925 5.334 1.925 7.258 0a4.858 4.858 0 001.432-3.441c0-.807-.33-1.541-.863-2.074a2.927 2.927 0 00-2.073-.862zm-3.173-5.157a1.737 1.737 0 010 2.448 1.737 1.737 0 01-2.447 0 1.737 1.737 0 010-2.448 1.737 1.737 0 012.447 0zm-.706.707a.735.735 0 00-1.035 0 .735.735 0 000 1.035.735.735 0 001.035 0 .735.735 0 000-1.035zm5.248-.71a1.737 1.737 0 010 2.447 1.737 1.737 0 01-2.447 0 1.737 1.737 0 010-2.448 1.737 1.737 0 012.447 0zm-.706.705a.735.735 0 00-1.035 0 .735.735 0 000 1.035.735.735 0 001.035 0 .735.735 0 000-1.035zM16.615 8h-1.21c-1.344 0-2.567.55-3.454 1.437-1.01 1.01-2.141 3.471-.925 4.688a1.74 1.74 0 001.233.513h7.503c.48 0 .916-.197 1.233-.513 1.216-1.217.084-3.679-.925-4.688A4.878 4.878 0 0016.615 8z"/></svg>
