<svg xmlns="http://www.w3.org/2000/svg" width="32" height="32" viewBox="0 0 32 32">
  <path fill="#FF9580" fill-rule="evenodd" d="M11.8722326,16.2577314 C9.7362295,16.2577314 8.00464703,17.9909032 8.00464703,20.1288657 C8.00464703,22.2668282 9.73639675,24 11.8723998,24 C14.0084029,24 15.7401526,22.2668282 15.7401526,20.1288657 C15.7401526,17.9909032 14.0085701,16.2577314 11.8723998,16.2577314 L11.8722326,16.2577314 Z M11.8722326,22.8290282 C10.3836704,22.8290282 9.17592802,21.6208324 9.17592802,20.1302011 C9.17592802,18.6395699 10.3831686,17.431374 11.8722326,17.431374 C13.3612965,17.431374 14.5687044,18.6395699 14.5687044,20.1302011 C14.5661955,21.619497 13.3604602,22.827192 11.8722326,22.8290282 Z M20.1322472,8.0001685 C17.9962442,8.0001685 16.2644944,9.7333403 16.2644944,11.8713028 C16.2644944,14.0092653 17.9962442,15.7424371 20.1322472,15.7424371 C22.2682503,15.7424371 24,14.0092653 24,11.8713028 C24,9.7333403 22.2685848,8.00000158 20.1324145,8.00000158 L20.1322472,8.0001685 Z M20.1322472,14.5714653 C18.6436851,14.5714653 17.4359427,13.3632694 17.4359427,11.8726382 C17.4359427,10.3820069 18.6426815,9.17381108 20.1324145,9.17381108 C21.6221474,9.17381108 22.8288863,10.3820069 22.8288863,11.8726382 C22.8263775,13.3626017 21.6198058,14.5687945 20.1324145,14.5712983 L20.1322472,14.5714653 Z M11.8722326,8.00000079 C10.0309314,7.99883311 8.44352199,9.29683406 8.07756985,11.1031186 C7.71161772,12.9094031 8.66814434,14.723533 10.3635999,15.4408054 C12.0640575,16.1536316 14.0322939,15.5725402 15.0705241,14.0511587 C16.1087543,12.5297773 15.9296876,10.4890905 14.6422962,9.17097338 L15.7389818,9.17097338 L15.7389818,8.00000079 L11.8722326,8.00000079 Z M14.5688716,11.8711359 C14.5688716,13.3616002 13.361631,14.569963 11.8723998,14.569963 C10.3831686,14.569963 9.17609527,13.3616002 9.17609527,11.8711359 C9.17609527,10.3806715 10.3831686,9.17280954 11.8722326,9.17280954 C13.3612965,9.17280954 14.5675336,10.3815062 14.5702096,11.8716366 L14.5688716,11.8716366 L14.5688716,11.8711359 Z"/>
</svg>
